<svg width="24" height="24" viewBox="0 0 24 24" xmlns="http://www.w3.org/2000/svg">
<style type="text/css">
	.st0{fill:#D60000;}
	.st1{fill:#FFFFFF;}
	.st2{font-family:'MyriadPro-Regular';}
	.st3{font-size:12px;}
</style>
<path d="M12,22c1.1,0,2-0.9,2-2h-4C10,21.1,10.9,22,12,22z M18,16v-5c0-3.1-1.6-5.6-4.5-6.3V4c0-0.8-0.7-1.5-1.5-1.5
	S10.5,3.2,10.5,4v0.7C7.6,5.4,6,7.9,6,11v5l-2,2v1h16v-1L18,16z"/>
<circle class="st0" cx="17.7" cy="6.3" r="6.3"/>
<text transform="matrix(1 0 0 1 14.5306 10.1684)" class="st1 st2 st3">1</text>
</svg>
